<?xml version="1.0" encoding="utf-8"?>
<!-- Generator: Adobe Illustrator 23.0.0, SVG Export Plug-In . SVG Version: 6.00 Build 0)  -->
<svg version="1.1" id="Layer_1" xmlns="http://www.w3.org/2000/svg" xmlns:xlink="http://www.w3.org/1999/xlink" x="0px" y="0px"
	 viewBox="0 0 249.39 207.32" style="enable-background:new 0 0 249.39 207.32;" xml:space="preserve">
<path fill="#E27D60" d="M187.04,0H62.35L0,107.99h32.69v99.33h184v-99.33h32.69L187.04,0z M150.44,102.93c1.78,0,3.31,0.64,4.61,1.9
	c1.29,1.27,1.94,2.77,1.94,4.49v22.17c0,1.73-0.65,3.23-1.94,4.49c-1.29,1.27-2.83,1.9-4.61,1.9h-19.5v15.62
	c0,1.78-0.64,3.29-1.9,4.53c-1.27,1.25-2.77,1.87-4.49,1.87c-1.83,0-3.38-0.62-4.65-1.87c-1.27-1.24-1.9-2.75-1.9-4.53v-15.77H98.64
	c-1.73,0-3.23-0.62-4.49-1.87c-1.27-1.24-1.9-2.75-1.9-4.53c0-1.78,0.62-3.29,1.87-4.53c1.24-1.24,2.75-1.87,4.53-1.87h45.25v-9.22
	H98.79c-1.78,0-3.29-0.61-4.53-1.83c-1.25-1.22-1.87-2.74-1.87-4.57V87.24c0-1.78,0.62-3.29,1.87-4.53
	c1.24-1.24,2.75-1.87,4.53-1.87h19.2V65.23c0-1.73,0.6-3.22,1.79-4.49c1.19-1.27,2.81-1.9,4.84-1.9c1.73,0,3.21,0.62,4.46,1.87
	c1.24,1.25,1.87,2.76,1.87,4.53v15.62h19.65c1.78,0,3.31,0.64,4.61,1.9c1.29,1.27,1.94,2.77,1.94,4.49c0,1.78-0.65,3.31-1.94,4.61
	s-2.83,1.94-4.61,1.94h-45.25v9.14H150.44z"/>
</svg>
